<?xml version="1.0" encoding="utf-8" standalone="yes"?>
<!DOCTYPE svg PUBLIC "-//W3C//DTD SVG 1.1//EN" "http://www.w3.org/Graphics/SVG/1.1/DTD/svg11.dtd">
<svg width="840" height="572" viewBox="0 0 840 572" style="fill:none;stroke:none;fill-rule:evenodd;clip-rule:evenodd;stroke-linecap:round;stroke-linejoin:round;stroke-miterlimit:1.5;" version="1.1" xmlns="http://www.w3.org/2000/svg" xmlns:xlink="http://www.w3.org/1999/xlink"><style class="text-font-style fontImports" data-font-family="Roboto">@import url('https://fonts.googleapis.com/css2?family=Roboto:wght@400;700&amp;display=block');</style><g id="items" style="isolation: isolate"><g id="blend" style="mix-blend-mode: normal"><g id="g-root-cp_1_bubble-1_1q88qd71mvr8r0-fill" data-item-order="-376982" transform="translate(38, 122)"><g id="cp_1_bubble-1_1q88qd71mvr8r0-fill" stroke="none" fill="#6c467e"><g><path d="M 178 22L 10 22C 10.000001 15.3726 15.3726 9.999999 22 10L 166 10.000013C 172.627 10.000013 178 15.3726 178 22ZM 178 154L 178 22L 10 22.000014L 10.000003 154L 178 154ZM 10 154L 178 154L 178 158.0873C 178 162.8876 175.139 167.226 170.727 169.117L 98.727 199.9741C 95.7085 201.2678 92.2916 201.2678 89.273 199.9741L 17.273 169.117C 12.8608 167.226 10 162.8876 10 158.0873L 10 154Z"></path></g></g></g><g id="g-root-cp_3_bubble-3_1lt1pbv1mvr6di-fill" data-item-order="-376954" transform="translate(230, 122)"><g id="cp_3_bubble-3_1lt1pbv1mvr6di-fill" stroke="none" fill="#a756cd"><g><path d="M 178 22L 10 22C 10.000001 15.3726 15.3726 9.999999 22 10L 166 10.000013C 172.627 10.000013 178 15.3726 178 22ZM 178 154L 178 22L 10 22.000014L 10.000003 154L 178 154ZM 10 154L 178 154L 178 158.0873C 178 162.8876 175.139 167.226 170.727 169.117L 98.727 199.9741C 95.7085 201.2678 92.2916 201.2678 89.273 199.9741L 17.273 169.117C 12.8608 167.226 10 162.8876 10 158.0873L 10 154Z"></path></g></g></g><g id="g-root-cp_5_bubble-5_1hd877f1mvr75s-fill" data-item-order="-376926" transform="translate(422, 122)"><g id="cp_5_bubble-5_1hd877f1mvr75s-fill" stroke="none" fill="#c564f2"><g><path d="M 178 22L 10 22C 10.000001 15.3726 15.3726 9.999999 22 10L 166 10.000013C 172.627 10.000013 178 15.3726 178 22ZM 178 154L 178 22L 10 22.000014L 10.000003 154L 178 154ZM 10 154L 178 154L 178 158.0873C 178 162.8876 175.139 167.226 170.727 169.117L 98.727 199.9741C 95.7085 201.2678 92.2916 201.2678 89.273 199.9741L 17.273 169.117C 12.8608 167.226 10 162.8876 10 158.0873L 10 154Z"></path></g></g></g><g id="g-root-cp_7_bubble-7_18hl6yj1mvr7yi-fill" data-item-order="-376898" transform="translate(614, 122)"><g id="cp_7_bubble-7_18hl6yj1mvr7yi-fill" stroke="none" fill="#e2a3ff"><g><path d="M 178 22L 10 22C 10.000001 15.3726 15.3726 9.999999 22 10L 166 10.000013C 172.627 10.000013 178 15.3726 178 22ZM 178 154L 178 22L 10 22.000014L 10.000003 154L 178 154ZM 10 154L 178 154L 178 158.0873C 178 162.8876 175.139 167.226 170.727 169.117L 98.727 199.9741C 95.7085 201.2678 92.2916 201.2678 89.273 199.9741L 17.273 169.117C 12.8608 167.226 10 162.8876 10 158.0873L 10 154Z"></path></g></g></g><g id="g-root-cp_2_bubble-2_141rou31mvr8qs-fill" data-item-order="-376868" transform="translate(134, 299)"><g id="cp_2_bubble-2_141rou31mvr8qs-fill" stroke="none" fill="#8d48ac"><g><path d="M 10.000001 188.999969L 178.000001 188.999998C 178.000001 195.627469 172.627001 200.999969 166.000001 200.999969L 22.000001 200.999969C 15.372601 200.999969 10 195.627369 10.000001 188.999969ZM 178 189L 178 57L 10 57.000014L 10.000003 189L 178 189ZM 178 56.944404L 10 56.944404L 10 52.857104C 10.000001 48.056804 12.8608 43.718304 17.273 41.827404L 89.273 10.970304C 92.2915 9.676604 95.7085 9.676604 98.727 10.970304L 170.727 41.827404C 175.139 43.718304 178 48.056804 178 52.857104L 178 56.944404Z"></path></g></g></g><g id="g-root-cp_4_bubble-4_v6r5ob1mvr6dq-fill" data-item-order="-376840" transform="translate(326, 299)"><g id="cp_4_bubble-4_v6r5ob1mvr6dq-fill" stroke="none" fill="#b75ce1"><g><path d="M 10.000001 189L 178.000001 189.000029C 178.000001 195.6275 172.627001 201 166.000001 201L 22.000001 201C 15.372601 201 10 195.6274 10.000001 189ZM 178 189L 178 57L 10 57.000014L 10.000003 189L 178 189ZM 178 56.944404L 10 56.944404L 10 52.857104C 10.000001 48.056804 12.8608 43.718304 17.273 41.827404L 89.273 10.970304C 92.2915 9.676604 95.7085 9.676604 98.727 10.970304L 170.727 41.827404C 175.139 43.718304 178 48.056804 178 52.857104L 178 56.944404Z"></path></g></g></g><g id="g-root-cp_6_bubble-6_qqxnjv1mvr760-fill" data-item-order="-376812" transform="translate(518, 299)"><g id="cp_6_bubble-6_qqxnjv1mvr760-fill" stroke="none" fill="#d477ff"><g><path d="M 10.000001 189L 178.000001 189.000029C 178.000001 195.6275 172.627001 201 166.000001 201L 22.000001 201C 15.372601 201 10 195.6274 10.000001 189ZM 178 189L 178 57L 10 57.000014L 10.000003 189L 178 189ZM 178 56.944404L 10 56.944404L 10 52.857104C 10.000001 48.056804 12.8608 43.718304 17.273 41.827404L 89.273 10.970304C 92.2915 9.676604 95.7085 9.676604 98.727 10.970304L 170.727 41.827404C 175.139 43.718304 178 48.056804 178 52.857104L 178 56.944404Z"></path></g></g></g><g id="g-root-tx_cloudgat_5w22j1mvr9c9-fill" data-item-order="0" transform="translate(434, 146)"><g id="tx_cloudgat_5w22j1mvr9c9-fill" stroke="none" fill="#ffffff"><g><text style="font: bold 20px Roboto, sans-serif; white-space: pre;" font-weight="bold" font-size="20px" font-family="Roboto, sans-serif"><tspan x="15.82" y="34" dominant-baseline="ideographic">cloud-gateway</tspan></text></g></g></g><g id="g-root-tx_cloudsho_qu20zf1mvr8ck-fill" data-item-order="0" transform="translate(644, 134)"><g id="tx_cloudsho_qu20zf1mvr8ck-fill" stroke="none" fill="#ffffff"><g><text style="font: bold 20px Roboto, sans-serif; white-space: pre;" font-weight="bold" font-size="20px" font-family="Roboto, sans-serif"><tspan x="13.32" y="34" dominant-baseline="ideographic">cloud-shop</tspan></text></g></g></g><g id="g-root-tx__90a4571mvr6dg-fill" data-item-order="0" transform="translate(50, 182)"><g id="tx__90a4571mvr6dg-fill" stroke="none" fill="#ffffff"><g><text style="font: 15px Roboto, sans-serif; white-space: pre;" font-size="15px" font-family="Roboto, sans-serif"><tspan x="14.5" y="31" dominant-baseline="ideographic">系统的公共依赖包。</tspan></text></g></g></g><g id="g-root-tx__v803uj1mvr8jz-fill" data-item-order="0" transform="translate(242, 170)"><g id="tx__v803uj1mvr8jz-fill" stroke="none" fill="#ffffff"><g><text style="font: 15px Roboto, sans-serif; white-space: pre;" font-size="15px" font-family="Roboto, sans-serif"><tspan x="14.5" y="28" dominant-baseline="ideographic">账号和流量包的微服</tspan><tspan x="67" y="46" dominant-baseline="ideographic">务。</tspan></text></g></g></g><g id="g-root-tx__1urt30b1mvr6rm-fill" data-item-order="0" transform="translate(440, 182)"><g id="tx__1urt30b1mvr6rm-fill" stroke="none" fill="#ffffff"><g><text style="font: 15px Roboto, sans-serif; white-space: pre;" font-size="15px" font-family="Roboto, sans-serif"><tspan x="16" y="31" dominant-baseline="ideographic">系统的业务网关。</tspan></text></g></g></g><g id="g-root-tx__dj7zp71mvr6rp-fill" data-item-order="0" transform="translate(626, 170)"><g id="tx__dj7zp71mvr6rp-fill" stroke="none" fill="#ffffff"><g><text style="font: 15px Roboto, sans-serif; white-space: pre;" font-size="15px" font-family="Roboto, sans-serif"><tspan x="14.5" y="28" dominant-baseline="ideographic">流量包商品和支付的</tspan><tspan x="52" y="46" dominant-baseline="ideographic">微服务。</tspan></text></g></g></g><g id="g-root-ic_arro_4n3wb1mvr765-fill" data-item-order="0" transform="translate(92, 218)"></g><g id="g-root-ic_text_mczkor1mvr6yo-fill" data-item-order="0" transform="translate(284, 218)"></g><g id="g-root-ic_sky_1lw62rf1mvr7kb-fill" data-item-order="0" transform="translate(476, 218)"></g><g id="g-root-ic_clou_4nkzgb1mvr7ke-fill" data-item-order="0" transform="translate(668, 218)"></g><g id="g-root-tx_cloudcom_dfh56j1mvr8qz-fill" data-item-order="0" transform="translate(50, 146)"><g id="tx_cloudcom_dfh56j1mvr8qz-fill" stroke="none" fill="#ffffff"><g><text style="font: bold 20px Roboto, sans-serif; white-space: pre;" font-weight="bold" font-size="20px" font-family="Roboto, sans-serif"><tspan x="13.9" y="34" dominant-baseline="ideographic">cloud-common</tspan></text></g></g></g><g id="g-root-ic_clou_1ly1i0r1mvr6kn-fill" data-item-order="0" transform="translate(188, 334)"></g><g id="g-root-tx_cloudacc_143n43f1mvr7ra-fill" data-item-order="0" transform="translate(242, 134)"><g id="tx_cloudacc_143n43f1mvr7ra-fill" stroke="none" fill="#ffffff"><g><text style="font: bold 20px Roboto, sans-serif; white-space: pre;" font-weight="bold" font-size="20px" font-family="Roboto, sans-serif"><tspan x="17.32" y="34" dominant-baseline="ideographic">cloud-account</tspan></text></g></g></g><g id="g-root-ic_1_i0afzv1mvr85m-fill" data-item-order="0" transform="translate(380, 334)"></g><g id="g-root-tx__mb45ff1mvr7ya-fill" data-item-order="0" transform="translate(332, 38)"><g id="tx__mb45ff1mvr7ya-fill" stroke="none" fill="#484848"><g><text style="font: bold 25px Roboto, sans-serif; white-space: pre;" font-weight="bold" font-size="25px" font-family="Roboto, sans-serif"><tspan x="13" y="43" dominant-baseline="ideographic">系统服务组件</tspan></text></g></g></g><g id="g-root-tx__4gpri31mvsnbb-fill" data-item-order="0" transform="translate(542, 442)"><g id="tx__4gpri31mvsnbb-fill" stroke="none" fill="#ffffff"><g><text style="font: 15px Roboto, sans-serif; white-space: pre;" font-size="15px" font-family="Roboto, sans-serif"><tspan x="17.5" y="31" dominant-baseline="ideographic">短链接微服务。</tspan></text></g></g></g><g id="g-root-tx_cloudapp_146rhiz1mvr8xs-fill" data-item-order="0" transform="translate(170, 406)"><g id="tx_cloudapp_146rhiz1mvr8xs-fill" stroke="none" fill="#ffffff"><g><text style="font: bold 20px Roboto, sans-serif; white-space: pre;" font-weight="bold" font-size="20px" font-family="Roboto, sans-serif"><tspan x="12.73" y="34" dominant-baseline="ideographic">cloud-app</tspan></text></g></g></g><g id="g-root-tx_clouddat_1lzag6z1mvr8qr-fill" data-item-order="0" transform="translate(356, 406)"><g id="tx_clouddat_1lzag6z1mvr8qr-fill" stroke="none" fill="#ffffff"><g><text style="font: bold 20px Roboto, sans-serif; white-space: pre;" font-weight="bold" font-size="20px" font-family="Roboto, sans-serif"><tspan x="15.61" y="34" dominant-baseline="ideographic">cloud-data</tspan></text></g></g></g><g id="g-root-tx_cloudlin_8wj9mj1mvsmj2-fill" data-item-order="0" transform="translate(554, 406)"><g id="tx_cloudlin_8wj9mj1mvsmj2-fill" stroke="none" fill="#ffffff"><g><text style="font: bold 20px Roboto, sans-serif; white-space: pre;" font-weight="bold" font-size="20px" font-family="Roboto, sans-serif"><tspan x="13.09" y="34" dominant-baseline="ideographic">cloud-link</tspan></text></g></g></g><g id="g-root-tx_flinkkaf_qvxg8r1mvr7cx-fill" data-item-order="0" transform="translate(146, 442)"><g id="tx_flinkkaf_qvxg8r1mvr7cx-fill" stroke="none" fill="#ffffff"><g><text style="font: 15px Roboto, sans-serif; white-space: pre;" font-size="15px" font-family="Roboto, sans-serif"><tspan x="16.98" y="28" dominant-baseline="ideographic">使用Flink和Kafka进</tspan><tspan x="37" y="46" dominant-baseline="ideographic">行实时计算。</tspan></text></g></g></g><g id="g-root-tx__18egtiz1mvslqc-fill" data-item-order="0" transform="translate(344, 442)"><g id="tx__18egtiz1mvslqc-fill" stroke="none" fill="#ffffff"><g><text style="font: 15px Roboto, sans-serif; white-space: pre;" font-size="15px" font-family="Roboto, sans-serif"><tspan x="16" y="28" dominant-baseline="ideographic">数据可视化的微服</tspan><tspan x="61" y="46" dominant-baseline="ideographic">务。</tspan></text></g></g></g><g id="g-root-ic_link_zitta31mvsmj1-fill" data-item-order="0" transform="translate(572, 334)"></g><g id="g-root-cp_1_bubble-1_1q88qd71mvr8r0-stroke" data-item-order="-376982" transform="translate(38, 122)"><g id="cp_1_bubble-1_1q88qd71mvr8r0-stroke" fill="none" stroke-linecap="round" stroke-linejoin="round" stroke-miterlimit="4" stroke="#ffffff" stroke-width="2"><g><path d="M 178 22C 178 15.3726 172.6274 10 166 10L 22 10C 15.3726 10 10 15.3726 10 22M 178 153.999786L 178 22M 10 153.999786L 10 22M 178 154L 178 158.0872C 178 162.8876 175.1392 167.226 170.727 169.117L 98.727 199.9741C 95.7085 201.2678 92.2916 201.2678 89.273 199.9741L 17.273 169.117C 12.8608 167.226 10 162.8876 10 158.0872L 10 154"></path></g></g></g><g id="g-root-cp_3_bubble-3_1lt1pbv1mvr6di-stroke" data-item-order="-376954" transform="translate(230, 122)"><g id="cp_3_bubble-3_1lt1pbv1mvr6di-stroke" fill="none" stroke-linecap="round" stroke-linejoin="round" stroke-miterlimit="4" stroke="#ffffff" stroke-width="2"><g><path d="M 178 22C 178 15.3726 172.6274 10 166 10L 22 10C 15.3726 10 10 15.3726 10 22M 178 153.999786L 178 22M 10 153.999786L 10 22M 178 154L 178 158.0872C 178 162.8876 175.1392 167.226 170.727 169.117L 98.727 199.9741C 95.7085 201.2678 92.2916 201.2678 89.273 199.9741L 17.273 169.117C 12.8608 167.226 10 162.8876 10 158.0872L 10 154"></path></g></g></g><g id="g-root-cp_5_bubble-5_1hd877f1mvr75s-stroke" data-item-order="-376926" transform="translate(422, 122)"><g id="cp_5_bubble-5_1hd877f1mvr75s-stroke" fill="none" stroke-linecap="round" stroke-linejoin="round" stroke-miterlimit="4" stroke="#ffffff" stroke-width="2"><g><path d="M 178 22C 178 15.3726 172.6274 10 166 10L 22 10C 15.3726 10 10 15.3726 10 22M 178 153.999786L 178 22M 10 153.999786L 10 22M 178 154L 178 158.0872C 178 162.8876 175.1392 167.226 170.727 169.117L 98.727 199.9741C 95.7085 201.2678 92.2916 201.2678 89.273 199.9741L 17.273 169.117C 12.8608 167.226 10 162.8876 10 158.0872L 10 154"></path></g></g></g><g id="g-root-cp_7_bubble-7_18hl6yj1mvr7yi-stroke" data-item-order="-376898" transform="translate(614, 122)"><g id="cp_7_bubble-7_18hl6yj1mvr7yi-stroke" fill="none" stroke-linecap="round" stroke-linejoin="round" stroke-miterlimit="4" stroke="#ffffff" stroke-width="2"><g><path d="M 178 22C 178 15.3726 172.6274 10 166 10L 22 10C 15.3726 10 10 15.3726 10 22M 178 153.999786L 178 22M 10 153.999786L 10 22M 178 154L 178 158.0872C 178 162.8876 175.1392 167.226 170.727 169.117L 98.727 199.9741C 95.7085 201.2678 92.2916 201.2678 89.273 199.9741L 17.273 169.117C 12.8608 167.226 10 162.8876 10 158.0872L 10 154"></path></g></g></g><g id="g-root-cp_2_bubble-2_141rou31mvr8qs-stroke" data-item-order="-376868" transform="translate(134, 299)"><g id="cp_2_bubble-2_141rou31mvr8qs-stroke" fill="none" stroke-linecap="round" stroke-linejoin="round" stroke-miterlimit="4" stroke="#ffffff" stroke-width="2"><g><path d="M 10.000001 188.999969C 10.000001 195.627369 15.372601 200.999969 22.000001 200.999969L 166.000001 200.999969C 172.627401 200.999969 178.000001 195.627369 178.000001 188.999969M 178 188.999786L 178 57M 10 188.999786L 10 57M 10 56.944404L 10 52.857104C 10 48.056804 12.8608 43.718304 17.273 41.827404L 89.273 10.970304C 92.2915 9.676604 95.7085 9.676604 98.727 10.970304L 170.727 41.827404C 175.1392 43.718304 178 48.056804 178 52.857104L 178 56.944404"></path></g></g></g><g id="g-root-cp_4_bubble-4_v6r5ob1mvr6dq-stroke" data-item-order="-376840" transform="translate(326, 299)"><g id="cp_4_bubble-4_v6r5ob1mvr6dq-stroke" fill="none" stroke-linecap="round" stroke-linejoin="round" stroke-miterlimit="4" stroke="#ffffff" stroke-width="2"><g><path d="M 10.000001 189C 10.000001 195.6274 15.372601 201 22.000001 201L 166.000001 201C 172.627401 201 178.000001 195.6274 178.000001 189M 178 188.999786L 178 57M 10 188.999786L 10 57M 10 56.944404L 10 52.857104C 10 48.056804 12.8608 43.718304 17.273 41.827404L 89.273 10.970304C 92.2915 9.676604 95.7085 9.676604 98.727 10.970304L 170.727 41.827404C 175.1392 43.718304 178 48.056804 178 52.857104L 178 56.944404"></path></g></g></g><g id="g-root-cp_6_bubble-6_qqxnjv1mvr760-stroke" data-item-order="-376812" transform="translate(518, 299)"><g id="cp_6_bubble-6_qqxnjv1mvr760-stroke" fill="none" stroke-linecap="round" stroke-linejoin="round" stroke-miterlimit="4" stroke="#ffffff" stroke-width="2"><g><path d="M 10.000001 189C 10.000001 195.6274 15.372601 201 22.000001 201L 166.000001 201C 172.627401 201 178.000001 195.6274 178.000001 189M 178 188.999786L 178 57M 10 188.999786L 10 57M 10 56.944404L 10 52.857104C 10 48.056804 12.8608 43.718304 17.273 41.827404L 89.273 10.970304C 92.2915 9.676604 95.7085 9.676604 98.727 10.970304L 170.727 41.827404C 175.1392 43.718304 178 48.056804 178 52.857104L 178 56.944404"></path></g></g></g><g id="g-root-tx_cloudgat_5w22j1mvr9c9-stroke" data-item-order="0" transform="translate(434, 146)"></g><g id="g-root-tx_cloudsho_qu20zf1mvr8ck-stroke" data-item-order="0" transform="translate(644, 134)"></g><g id="g-root-tx__90a4571mvr6dg-stroke" data-item-order="0" transform="translate(50, 182)"></g><g id="g-root-tx__v803uj1mvr8jz-stroke" data-item-order="0" transform="translate(242, 170)"></g><g id="g-root-tx__1urt30b1mvr6rm-stroke" data-item-order="0" transform="translate(440, 182)"></g><g id="g-root-tx__dj7zp71mvr6rp-stroke" data-item-order="0" transform="translate(626, 170)"></g><g id="g-root-ic_arro_4n3wb1mvr765-stroke" data-item-order="0" transform="translate(92, 218)"><g id="ic_arro_4n3wb1mvr765-stroke" fill="none" stroke-linecap="round" stroke-linejoin="round" stroke-miterlimit="4" stroke="#ffffff" stroke-width="2"><g><path d="M 27.43495 25.839849L 22.841801 25.839849C 17.318951 25.839849 12.8418 30.316999 12.8418 35.839752L 12.8418 48.90625C 12.8418 54.429001 17.318951 58.90625 22.841801 58.90625L 37.204002 58.90625M 58.614002 39.6395C 63.275753 39.6395 67.160751 35.560501 67.160751 30.898676C 67.160751 26.236876 63.275753 22.352026 58.614002 22.352026C 56.865749 22.352026 55.117752 22.93475 53.758003 23.905975C 52.592503 17.884476 47.348 13.22265 40.938 13.22265C 33.750999 13.22265 27.7295 19.049925 27.7295 26.431126C 27.7295 33.812325 33.556751 39.6395 40.938 39.6395L 58.614002 39.6395ZM 10 10M 48.886749 58.90625L 67.158249 58.90625M 10 10M 30.180676 51.035252L 38.049248 58.899002L 30.180676 66.767746M 10 10M 55.869251 66.777252L 47.998749 58.911747L 55.869251 51.041252"></path></g></g></g><g id="g-root-ic_text_mczkor1mvr6yo-stroke" data-item-order="0" transform="translate(284, 218)"><g id="ic_text_mczkor1mvr6yo-stroke" fill="none" stroke-linecap="round" stroke-linejoin="round" stroke-miterlimit="4" stroke="#ffffff" stroke-width="2"><g><path d="M 61.25 44.764999C 65.17556 42.950401 67.636276 38.965027 67.499992 34.642498C 67.452667 31.443859 66.106232 28.402082 63.770237 26.216515C 61.43425 24.030947 58.309711 22.889641 55.114998 23.055C 52.266483 17.321869 46.401669 13.711407 40 13.75C 31.276306 13.632963 23.966877 20.322598 23.3125 29.022499C 20.708099 28.44989 17.984163 29.074894 15.889901 30.725609C 13.79564 32.37632 12.551619 34.878891 12.5 37.544998C 12.292103 41.441761 14.938012 44.91531 18.75 45.750004M 52.5 66.25L 27.5 66.25C 26.119287 66.25 25 65.130707 25 63.75L 25 38.75C 25 37.369286 26.119287 36.25 27.5 36.25L 52.5 36.25C 53.880711 36.25 55 37.369286 55 38.75L 55 63.75C 55 65.130707 53.880711 66.25 52.5 66.25ZM 32.5 43.75L 47.5 43.75M 32.5 51.25L 47.5 51.25M 32.5 58.75L 38.125 58.75"></path></g></g></g><g id="g-root-ic_sky_1lw62rf1mvr7kb-stroke" data-item-order="0" transform="translate(476, 218)"><g id="ic_sky_1lw62rf1mvr7kb-stroke" fill="none" stroke-linecap="round" stroke-linejoin="round" stroke-miterlimit="4" stroke="#ffffff" stroke-width="2"><g><path d="M 43 22.665001C 43.506523 21.197363 43.231941 19.572872 42.271202 18.353239C 41.310467 17.133606 39.795444 16.486246 38.25 16.635C 36.991535 13.03192 33.316681 10.862942 29.554117 11.502509C 25.791557 12.142076 23.039762 15.40347 23.0425 19.219999C 19.070925 19.221035 15.851873 22.440924 15.851873 26.4125C 15.851873 30.384075 19.070925 33.603966 23.0425 33.605L 40 33.605C 42.64362 33.594975 44.956421 31.824066 45.655556 29.274548C 46.354691 26.725029 45.268723 24.022104 43 22.665001ZM 61.25 55.689999L 61.25 68.604996L 46.25 68.604996L 46.25 55.689999M 42.5 58.605L 53.75 49.855L 65 58.605M 11.25 68.604996L 68.75 68.604996M 27.5 41.105L 31.25 37.355L 35 41.105M 35 61.105L 31.25 64.854996L 27.5 61.105M 31.25 37.355L 31.25 43.605M 31.25 58.605L 31.25 64.854996M 31.25 48.605L 31.25 53.605"></path></g></g></g><g id="g-root-ic_clou_4nkzgb1mvr7ke-stroke" data-item-order="0" transform="translate(668, 218)"><g id="ic_clou_4nkzgb1mvr7ke-stroke" fill="none" stroke-linecap="round" stroke-linejoin="round" stroke-miterlimit="4" stroke="#ffffff" stroke-width="2"><g><path d="M 40 40L 40 27.5M 35 35L 40 40L 45 35M 50 33.75L 50.955002 33.75C 54.983932 33.209675 57.993546 29.774996 58 25.710001C 58.029915 23.558882 57.182358 21.488373 55.652676 19.97567C 54.122993 18.462967 52.043152 17.638577 49.892498 17.692501C 48.138527 13.795307 44.273609 11.278275 39.999996 11.25C 34.132999 11.323523 29.341995 15.961004 29.077499 21.8225C 27.32217 21.470387 25.501812 21.932238 24.126665 23.078596C 22.751518 24.224957 21.96957 25.932461 22 27.7225C 21.986729 29.364183 22.64842 30.93924 23.830149 32.078899C 25.011875 33.218559 26.609875 33.822746 28.25 33.75L 30 33.75M 28.0525 48.75L 30 42.5M 52.572498 48.75L 50 42.5M 49.145 68.75C 50.817093 68.736893 52.243126 67.535583 52.540001 65.889999L 55 53.75L 25 53.75L 27.555 66.379997C 27.84231 67.773399 29.077394 68.767334 30.5 68.75L 49.150002 68.75ZM 25 48.75L 55 48.75C 56.380711 48.75 57.5 49.869286 57.5 51.25L 57.5 53.75L 57.5 53.75L 22.5 53.75L 22.5 53.75L 22.5 51.25C 22.5 49.869286 23.619287 48.75 25 48.75ZM 40 58.75L 40 63.75M 32.5 58.75L 33.75 63.75M 47.5 58.75L 46.25 63.75"></path></g></g></g><g id="g-root-tx_cloudcom_dfh56j1mvr8qz-stroke" data-item-order="0" transform="translate(50, 146)"></g><g id="g-root-ic_clou_1ly1i0r1mvr6kn-stroke" data-item-order="0" transform="translate(188, 334)"><g id="ic_clou_1ly1i0r1mvr6kn-stroke" fill="none" stroke-linecap="round" stroke-linejoin="round" stroke-miterlimit="4" stroke="#ffffff" stroke-width="2"><g><path d="M 37.225002 46.424999C 36.749046 46.179031 36.178928 46.200863 35.723179 46.48251C 35.267426 46.764153 34.992897 47.264294 35 47.799999L 35 57.199997C 34.992897 57.735706 35.267426 58.235851 35.723179 58.51749C 36.178928 58.799133 36.749046 58.820969 37.225002 58.575001L 45.125 54.299999C 45.81498 53.965828 46.25322 53.266644 46.25322 52.5C 46.25322 51.733356 45.81498 51.034172 45.125 50.700001ZM 62.224998 44.700001C 66.367897 42.667816 68.92514 38.386147 68.75 33.775002C 68.752205 30.380333 67.37365 27.130764 64.931198 24.773182C 62.488743 22.415602 59.192467 21.15279 55.799999 21.275002C 52.387589 14.03631 44.499592 10.034663 36.642918 11.556452C 28.786242 13.07824 22.962845 19.735699 22.5 27.725C 19.743504 27.162331 16.880033 27.867315 14.699826 29.645393C 12.519619 31.423473 11.253177 34.086666 11.25 36.900002C 10.988247 41.042824 13.740017 44.775108 17.775 45.75M 25 36.25L 55 36.25C 55 36.25 57.5 36.25 57.5 38.75L 57.5 66.25C 57.5 66.25 57.5 68.75 55 68.75L 25 68.75C 25 68.75 22.5 68.75 22.5 66.25L 22.5 38.75C 22.5 38.75 22.5 36.25 25 36.25M 28.75 41.25L 31.25 41.25M 48.75 41.25L 51.25 41.25M 38.75 41.25L 41.25 41.25M 28.75 63.75L 31.25 63.75M 48.75 63.75L 51.25 63.75M 38.75 63.75L 41.25 63.75"></path></g></g></g><g id="g-root-tx_cloudacc_143n43f1mvr7ra-stroke" data-item-order="0" transform="translate(242, 134)"></g><g id="g-root-ic_1_i0afzv1mvr85m-stroke" data-item-order="0" transform="translate(380, 334)"><g id="ic_1_i0afzv1mvr85m-stroke" fill="none" stroke-linecap="round" stroke-linejoin="round" stroke-miterlimit="4" stroke="#ffffff" stroke-width="2"><g><path d="M 68.125 63.125C 68.125 65.875 65.875 68.125 63.125 68.125L 16.875 68.125C 14.125 68.125 11.875 65.875 11.875 63.125L 11.875 16.875C 11.875 14.125 14.125 11.875 16.875 11.875L 63.125 11.875C 65.875 11.875 68.125 14.125 68.125 16.875L 68.125 63.125ZM 28.219101 45.077L 19.682001 45.077L 19.682001 55.036999L 28.219101 55.036999L 28.219101 45.077ZM 44.149002 23.165276L 35.612 23.165276L 35.612 55.036999L 44.149002 55.036999L 44.149002 23.165276ZM 60.317997 35.686249L 51.780746 35.686249L 51.780746 55.036999L 60.317997 55.036999L 60.317997 35.686249Z"></path></g></g></g><g id="g-root-tx__mb45ff1mvr7ya-stroke" data-item-order="0" transform="translate(332, 38)"></g><g id="g-root-tx__4gpri31mvsnbb-stroke" data-item-order="0" transform="translate(542, 442)"></g><g id="g-root-tx_cloudapp_146rhiz1mvr8xs-stroke" data-item-order="0" transform="translate(170, 406)"></g><g id="g-root-tx_clouddat_1lzag6z1mvr8qr-stroke" data-item-order="0" transform="translate(356, 406)"></g><g id="g-root-tx_cloudlin_8wj9mj1mvsmj2-stroke" data-item-order="0" transform="translate(554, 406)"></g><g id="g-root-tx_flinkkaf_qvxg8r1mvr7cx-stroke" data-item-order="0" transform="translate(146, 442)"></g><g id="g-root-tx__18egtiz1mvslqc-stroke" data-item-order="0" transform="translate(344, 442)"></g><g id="g-root-ic_link_zitta31mvsmj1-stroke" data-item-order="0" transform="translate(572, 334)"><g id="ic_link_zitta31mvsmj1-stroke" fill="none" stroke-linecap="round" stroke-linejoin="round" stroke-miterlimit="4" stroke="#ffffff" stroke-width="2"><g><path d="M 54.0275 64.635002L 51.375 67.284996C 49.422501 69.236908 46.2575 69.236908 44.305 67.284996L 42.537502 65.517502C 40.58559 63.565002 40.58559 60.400002 42.537502 58.447498L 50.112499 50.869999C 51.78648 49.197918 54.49852 49.197918 56.172501 50.869999L 57.5625 52.259998M 55.795002 45.1875L 58.447498 42.537502C 60.400002 40.58559 63.565002 40.58559 65.517502 42.537502L 67.284996 44.305C 69.236908 46.2575 69.236908 49.422501 67.284996 51.375L 59.710003 58.952499C 58.03516 60.624863 55.322334 60.624863 53.647499 58.952499L 52.259998 57.5625M 58.75 21.25L 58.75 36.25M 21.25 16.25L 53.75 16.25M 16.25 53.75L 16.25 21.25M 36.25 58.75L 21.25 58.75M 12.5 11.25L 20 11.25C 20 11.25 21.25 11.25 21.25 12.5L 21.25 20C 21.25 20 21.25 21.25 20 21.25L 12.5 21.25C 12.5 21.25 11.25 21.25 11.25 20L 11.25 12.5C 11.25 12.5 11.25 11.25 12.5 11.25M 55 11.25L 62.5 11.25C 62.5 11.25 63.75 11.25 63.75 12.5L 63.75 20C 63.75 20 63.75 21.25 62.5 21.25L 55 21.25C 55 21.25 53.75 21.25 53.75 20L 53.75 12.5C 53.75 12.5 53.75 11.25 55 11.25M 12.5 53.75L 20 53.75C 20 53.75 21.25 53.75 21.25 55L 21.25 62.5C 21.25 62.5 21.25 63.75 20 63.75L 12.5 63.75C 12.5 63.75 11.25 63.75 11.25 62.5L 11.25 55C 11.25 55 11.25 53.75 12.5 53.75"></path></g></g></g></g></g><path id="wqu20zf1nfnldt" d="M65.283 12.757a.35.35 0 0 0 .584.157l5.203-5.141-6.183 3.523.396 1.461zm-2.216-11.7a.35.35 0 0 0-.522.305v3.111l3.276-1.868-2.754-1.548zm3.728 2.105l-4.25 2.421v2.445l6.391-3.644-2.141-1.222zm4.708 3.303a.35.35 0 0 0 0-.609l-1.592-.9-7.365 4.199v1.782a.35.35 0 0 0 .523.305l8.435-4.777z M44.542 2.513c0-.433.355-.783.792-.783s.792.35.792.783-.355.783-.792.783-.792-.35-.792-.783zm59.171 0c0-.433.355-.783.792-.783s.792.35.792.783-.355.783-.792.783-.792-.35-.792-.783zm-85.951 7.636h-1.27v-.487c-.276.201-.864.609-1.881.609-1.202 0-2.274-.794-2.137-2.078.118-1.106 1.153-1.584 1.848-1.727l2.17-.345c0-.539-.29-.956-1.064-1.006s-1.21.305-1.571 1.017l-1.124-.605c1.218-2.631 5.029-1.764 5.029.414v4.207zm-1.27-2.86c.006.396-.062 1.112-.819 1.59-.587.37-1.841.299-1.903-.395-.049-.555.461-.791.906-.898l1.816-.297zm72.662 2.86h-1.27v-.487c-.276.201-.864.609-1.881.609-1.202 0-2.274-.794-2.137-2.078.118-1.106 1.153-1.584 1.848-1.727l2.17-.345c0-.539-.29-.956-1.064-1.006s-1.21.305-1.571 1.017l-1.124-.605c1.218-2.631 5.029-1.764 5.029.414v4.207zm-1.27-2.86c.006.396-.062 1.112-.82 1.59-.587.37-1.841.299-1.903-.395-.049-.555.461-.791.906-.898l1.816-.297zM99.096 10.149H97.85v-8.45h1.246v4.895l2.68-2.559h1.738l-2.633 2.535 2.715 3.578h-1.556l-2.077-2.707-.867.844v1.863zm6.053-6.114h-1.255v6.113h1.255V4.035zm-59.2 0h-1.255v6.113h1.255V4.035zm5.584 6.113V1.697h1.255v2.695c.361-.346 1-.485 1.47-.485 1.452 0 2.477 1.082 2.457 2.448v3.792h-1.27v-3.68c0-.408-.214-1.339-1.315-1.339-.968 0-1.342.756-1.342 1.339v3.681h-1.255zm-4.76-4.894V4.039h.621a.45.45 0 0 0 .45-.45v-.855h1.251v1.305h1.309v1.215h-1.309v3.109c0 .293.105.664.648.664.365 0 .531-.035.736-.07v1.137s-.361.113-.857.113c-1.398 0-1.777-1.051-1.777-1.788V5.254h-1.071zM36.528 4.039h-1.394l2.191 6.106h1.125l1.234-3.918 1.238 3.918h1.129l2.188-6.106h-1.383l-1.359 3.93-1.256-3.93h-1.124l-1.242 3.957-1.348-3.957zM26.212 7.141c-.02 1.566 1.187 3.129 3.223 3.129 1.566 0 2.383-.918 2.734-1.719L31.172 8c-.315.399-.801 1.094-1.738 1.094-1.145 0-1.825-.781-1.891-1.52h4.625c.074-.284.148-.995-.03-1.559-.336-1.064-1.221-2.102-2.839-2.102s-3.088 1.152-3.088 3.227zm1.363-.75h3.348c-.055-.43-.566-1.301-1.623-1.301a1.79 1.79 0 0 0-1.725 1.301zm-8.758.75c.038 1.758 1.277 3.133 3.145 3.133 1.074 0 1.723-.477 1.961-.672v.547h1.242V1.703h-1.258v2.888c-.414-.36-1.062-.68-1.93-.68-1.91 0-3.198 1.473-3.16 3.23zm1.309-.08c0 1.119.723 1.978 1.836 1.978a1.88 1.88 0 0 0 1.94-1.904c0-1.371-1.011-1.99-1.972-1.99s-1.805.798-1.805 1.916zm76.683-.028C96.771 5.275 95.532 3.9 93.664 3.9c-1.074 0-1.723.477-1.961.672v-.547h-1.242v8.22h1.258V9.583c.414.36 1.063.68 1.93.68 1.91 0 3.198-1.473 3.16-3.23zm-1.309.08c0-1.119-.723-1.978-1.836-1.978a1.88 1.88 0 0 0-1.94 1.904c0 1.371 1.011 1.99 1.972 1.99S95.5 8.231 95.5 7.113zM106.441 10.173V4.036h1.254v.382c.361-.346 1-.485 1.47-.485 1.452 0 2.477 1.082 2.457 2.448v3.792h-1.27V6.492c0-.408-.214-1.339-1.315-1.339-.969 0-1.342.756-1.342 1.339v3.681h-1.254zm-30.383-.021V1.824h1.084l4.215 5.777V1.824h1.32v8.328h-1.094l-4.207-5.796v5.796h-1.319zM5.24 10.149H4V2.377h1.014l2.664 3.597 2.654-3.592h1.03v7.766h-1.256V4.762L7.678 8.068 5.24 4.742v5.407z" transform="translate(704, 538)" fill="#80808088" stroke="none"></path></svg>