<?xml version="1.0" encoding="utf-8" standalone="yes"?>
<!DOCTYPE svg PUBLIC "-//W3C//DTD SVG 1.1//EN" "http://www.w3.org/Graphics/SVG/1.1/DTD/svg11.dtd">
<svg width="996" height="934" viewBox="0 0 996 934" style="fill:none;stroke:none;fill-rule:evenodd;clip-rule:evenodd;stroke-linecap:round;stroke-linejoin:round;stroke-miterlimit:1.5;" version="1.1" xmlns="http://www.w3.org/2000/svg" xmlns:xlink="http://www.w3.org/1999/xlink"><style class="text-font-style fontImports" data-font-family="Roboto">@import url('https://fonts.googleapis.com/css2?family=Roboto:wght@400;700&amp;display=block');</style><g id="items" style="isolation: isolate"><g id="blend" style="mix-blend-mode: normal"><g id="g-root-ro_qofkv217waayv-fill" data-item-order="-16632" transform="translate(422, 320)"><g id="ro_qofkv217waayv-fill" stroke="none" fill="#cd6afb"><g><path d="M 34 10L 118 10C 118 10 142 10 142 34L 142 112C 142 112 142 136 118 136L 34 136C 34 136 10 136 10 112L 10 34C 10 34 10 10 34 10"></path></g></g></g><g id="g-root-ro_18i7kv217w3caz-fill" data-item-order="-9072" transform="translate(602, 218)"><g id="ro_18i7kv217w3caz-fill" stroke="none" fill="#cd6afb"><g><path d="M 22 10L 166 10C 166 10 178 10 178 22L 178 52C 178 52 178 64 166 64L 22 64C 22 64 10 64 10 52L 10 22C 10 22 10 10 22 10"></path></g></g></g><g id="g-root-ro_144vvxa17whc7b-fill" data-item-order="-7776" transform="translate(416, 668)"><g id="ro_144vvxa17whc7b-fill" stroke="none" fill="#cd6afb"><g><path d="M 22 10L 142 10C 142 10 154 10 154 22L 154 52C 154 52 154 64 142 64L 22 64C 22 64 10 64 10 52L 10 22C 10 22 10 10 22 10"></path></g></g></g><g id="g-root-ro_qwju5a17wodfq-fill" data-item-order="-7776" transform="translate(230, 122)"><g id="ro_qwju5a17wodfq-fill" stroke="none" fill="#cd6afb"><g><path d="M 22 10L 142 10C 142 10 154 10 154 22L 154 52C 154 52 154 64 142 64L 22 64C 22 64 10 64 10 52L 10 22C 10 22 10 10 22 10"></path></g></g></g><g id="g-root-tx__18hl3ry17wab5v-fill" data-item-order="0" transform="translate(62, 188)"><g id="tx__18hl3ry17wab5v-fill" stroke="none" fill="#484848"><g><text style="font: 20px Roboto, sans-serif; white-space: pre;" font-size="20px" font-family="Roboto, sans-serif"><tspan x="12" y="34" dominant-baseline="ideographic">多案例短链码设计方案和落地</tspan></text></g></g></g><g id="g-root-cu_qofr6m17w3apw-fill" data-item-order="0" transform="translate(332, 176)"></g><g id="g-root-cu_qofr6m17w3apz-fill" data-item-order="0" transform="translate(332, 176)"></g><g id="g-root-cu_m8m92617w3bi9-fill" data-item-order="0" transform="translate(332, 176)"></g><g id="g-root-cu_m8m92617w3bib-fill" data-item-order="0" transform="translate(332, 176)"></g><g id="g-root-cu_m8m92617w3bid-fill" data-item-order="0" transform="translate(332, 176)"></g><g id="g-root-cu_dcz8ta17w3cb3-fill" data-item-order="0" transform="translate(332, 176)"></g><g id="g-root-cu_hssqxq17w3cap-fill" data-item-order="0" transform="translate(332, 176)"></g><g id="g-root-cu_hssqxq17w3car-fill" data-item-order="0" transform="translate(332, 176)"></g><g id="g-root-cu_8xs7ry17w39xp-fill" data-item-order="0" transform="translate(332, 176)"></g><g id="g-root-tx__zly3j217wabyk-fill" data-item-order="0" transform="translate(182, 224)"><g id="tx__zly3j217wabyk-fill" stroke="none" fill="#484848"><g><text style="font: 20px Roboto, sans-serif; white-space: pre;" font-size="20px" font-family="Roboto, sans-serif"><tspan x="12" y="34" dominant-baseline="ideographic">高性能短链解析</tspan></text></g></g></g><g id="g-root-cu_18f3ala17w3aq5-fill" data-item-order="0" transform="translate(374, 149)"></g><g id="g-root-tx__v4vn8e17waaki-fill" data-item-order="0" transform="translate(464, 734)"><g id="tx__v4vn8e17waaki-fill" stroke="none" fill="#484848"><g><text style="font: 20px Roboto, sans-serif; white-space: pre;" font-size="20px" font-family="Roboto, sans-serif"><tspan x="12" y="34" dominant-baseline="ideographic">图形验证码防刷设计</tspan></text></g></g></g><g id="g-root-cu_1haqau617w39xe-fill" data-item-order="0" transform="translate(554, 245)"></g><g id="g-root-tx__v64lem17wacqt-fill" data-item-order="0" transform="translate(38, 260)"><g id="tx__v64lem17wacqt-fill" stroke="none" fill="#484848"><g><text style="font: 20px Roboto, sans-serif; white-space: pre;" font-size="20px" font-family="Roboto, sans-serif"><tspan x="16" y="34" dominant-baseline="ideographic">多案例数据上报设计和方案对比</tspan></text></g></g></g><g id="g-root-cu_zjgace17w3cax-fill" data-item-order="0" transform="translate(626, 272)"></g><g id="g-root-cu_zjgace17w3cb0-fill" data-item-order="0" transform="translate(626, 272)"></g><g id="g-root-cu_v499b217w39xi-fill" data-item-order="0" transform="translate(626, 272)"></g><g id="g-root-tx_oss_4il3ku17waakl-fill" data-item-order="0" transform="translate(464, 842)"><g id="tx_oss_4il3ku17waakl-fill" stroke="none" fill="#484848"><g><text style="font: 20px Roboto, sans-serif; white-space: pre;" font-size="20px" font-family="Roboto, sans-serif"><tspan x="12" y="34" dominant-baseline="ideographic">OSS分布式文件存储</tspan></text></g></g></g><g id="g-root-cu_qofr6m17w3apu-fill" data-item-order="0" transform="translate(626, 272)"></g><g id="g-root-tx_cb_mahl5q17wadji-fill" data-item-order="0" transform="translate(14, 296)"><g id="tx_cb_mahl5q17wadji-fill" stroke="none" fill="#484848"><g><text style="font: 20px Roboto, sans-serif; white-space: pre;" font-size="20px" font-family="Roboto, sans-serif"><tspan x="23.17" y="34" dominant-baseline="ideographic">C端解析+B端查询分库分表常见解</tspan><tspan x="260" y="58" dominant-baseline="ideographic">决方案</tspan></text></g></g></g><g id="g-root-tx__4il3ku17waakm-fill" data-item-order="0" transform="translate(650, 284)"><g id="tx__4il3ku17waakm-fill" stroke="none" fill="#484848"><g><text style="font: 20px Roboto, sans-serif; white-space: pre;" font-size="20px" font-family="Roboto, sans-serif"><tspan x="12" y="34" dominant-baseline="ideographic">海量数据下流量包过期处理解决方</tspan><tspan x="12" y="58" dominant-baseline="ideographic">案</tspan></text></g></g></g><g id="g-root-tx__htf4v217wac5f-fill" data-item-order="0" transform="translate(464, 770)"><g id="tx__htf4v217wac5f-fill" stroke="none" fill="#484848"><g><text style="font: 20px Roboto, sans-serif; white-space: pre;" font-size="20px" font-family="Roboto, sans-serif"><tspan x="12" y="34" dominant-baseline="ideographic">短信验证码接入</tspan></text></g></g></g><g id="g-root-tx__hvak4e17wab5z-fill" data-item-order="0" transform="translate(122, 356)"><g id="tx__hvak4e17wab5z-fill" stroke="none" fill="#484848"><g><text style="font: 20px Roboto, sans-serif; white-space: pre;" font-size="20px" font-family="Roboto, sans-serif"><tspan x="12" y="34" dominant-baseline="ideographic">海量数据分库分表处理</tspan></text></g></g></g><g id="g-root-tx__1uo25b217wab67-fill" data-item-order="0" transform="translate(650, 344)"><g id="tx__1uo25b217wab67-fill" stroke="none" fill="#484848"><g><text style="font: 20px Roboto, sans-serif; white-space: pre;" font-size="20px" font-family="Roboto, sans-serif"><tspan x="12" y="34" dominant-baseline="ideographic">海量数据下每日流量包更新解决方</tspan><tspan x="12" y="58" dominant-baseline="ideographic">案</tspan></text></g></g></g><g id="g-root-tx_cb_dfh1zy17waby8-fill" data-item-order="0" transform="translate(14, 392)"><g id="tx_cb_dfh1zy17waby8-fill" stroke="none" fill="#484848"><g><text style="font: 20px Roboto, sans-serif; white-space: pre;" font-size="20px" font-family="Roboto, sans-serif"><tspan x="14.52" y="34" dominant-baseline="ideographic">分库分表后C端解析和B端查询处理</tspan><tspan x="220" y="58" dominant-baseline="ideographic">解决方案二</tspan></text></g></g></g><g id="g-root-tx__8xs4m617wacy4-fill" data-item-order="0" transform="translate(464, 806)"><g id="tx__8xs4m617wacy4-fill" stroke="none" fill="#484848"><g><text style="font: 20px Roboto, sans-serif; white-space: pre;" font-size="20px" font-family="Roboto, sans-serif"><tspan x="12" y="34" dominant-baseline="ideographic">高并发下新用户免费流量包处理</tspan></text></g></g></g><g id="g-root-tx__1q88n6m17wabyg-fill" data-item-order="0" transform="translate(650, 404)"><g id="tx__1q88n6m17wabyg-fill" stroke="none" fill="#484848"><g><text style="font: 20px Roboto, sans-serif; white-space: pre;" font-size="20px" font-family="Roboto, sans-serif"><tspan x="12" y="34" dominant-baseline="ideographic">高并发下流量包扣减数处理</tspan></text></g></g></g><g id="g-root-tx_curdp1_4ju1r217wacqx-fill" data-item-order="0" transform="translate(50, 452)"><g id="tx_curdp1_4ju1r217wacqx-fill" stroke="none" fill="#484848"><g><text style="font: 20px Roboto, sans-serif; white-space: pre;" font-size="20px" font-family="Roboto, sans-serif"><tspan x="12.56" y="34" dominant-baseline="ideographic">分库分表后短链CURD【冗余双</tspan><tspan x="26.33" y="58" dominant-baseline="ideographic">写】分布式事务解决方案(P1)</tspan></text></g></g></g><g id="g-root-cu_1cuwspq17w39xr-fill" data-item-order="0" transform="translate(488, 446)"></g><g id="g-root-tx__1lsf52617wacqp-fill" data-item-order="0" transform="translate(650, 440)"><g id="tx__1lsf52617wacqp-fill" stroke="none" fill="#484848"><g><text style="font: 20px Roboto, sans-serif; white-space: pre;" font-size="20px" font-family="Roboto, sans-serif"><tspan x="12" y="34" dominant-baseline="ideographic">高并发、多场景分布式事务+锁、</tspan><tspan x="12" y="58" dominant-baseline="ideographic">复杂业务逻辑</tspan></text></g></g></g><g id="g-root-tx_partitio_4ju1r217wacqy-fill" data-item-order="0" transform="translate(26, 512)"><g id="tx_partitio_4ju1r217wacqy-fill" stroke="none" fill="#484848"><g><text style="font: 20px Roboto, sans-serif; white-space: pre;" font-size="20px" font-family="Roboto, sans-serif"><tspan x="14.88" y="34" dominant-baseline="ideographic">单一Partition Key做分库分表解决</tspan><tspan x="248" y="58" dominant-baseline="ideographic">方案三</tspan></text></g></g></g><g id="g-root-tx__1cws4ta17wadje-fill" data-item-order="0" transform="translate(650, 500)"><g id="tx__1cws4ta17wadje-fill" stroke="none" fill="#484848"><g><text style="font: 20px Roboto, sans-serif; white-space: pre;" font-size="20px" font-family="Roboto, sans-serif"><tspan x="12" y="34" dominant-baseline="ideographic">冷热数据归档和处理</tspan></text></g></g></g><g id="g-root-tx__40jmm17wadj7-fill" data-item-order="0" transform="translate(14, 572)"><g id="tx__40jmm17wadj7-fill" stroke="none" fill="#484848"><g><text style="font: 20px Roboto, sans-serif; white-space: pre;" font-size="20px" font-family="Roboto, sans-serif"><tspan x="20" y="34" dominant-baseline="ideographic">短链库表数据库【免迁移扩容】解</tspan><tspan x="240" y="58" dominant-baseline="ideographic">决方案四</tspan></text></g></g></g><g id="g-root-tx__8xs7ry17w39xr-fill" data-item-order="0" transform="translate(368, 38)"><g id="tx__8xs7ry17w39xr-fill" stroke="none" fill="#484848"><g><text style="font: bold 25px Roboto, sans-serif; white-space: pre;" font-weight="bold" font-size="25px" font-family="Roboto, sans-serif"><tspan x="17.5" y="46" dominant-baseline="ideographic">系统亮点与模块设计</tspan></text></g></g></g><g id="g-root-cu_v499b217w39xk-fill" data-item-order="0" transform="translate(626, 272)"></g><g id="g-root-cu_1cuwspq17w3aps-fill" data-item-order="0" transform="translate(440, 722)"></g><g id="g-root-cu_1cuwspq17w3apv-fill" data-item-order="0" transform="translate(440, 722)"></g><g id="g-root-cu_13z9sgu17w3bil-fill" data-item-order="0" transform="translate(440, 722)"></g><g id="g-root-cu_13z9sgu17w3bin-fill" data-item-order="0" transform="translate(440, 722)"></g><g id="g-root-ic_ftp_18i7kv217w3cay-fill" data-item-order="1000000000" transform="translate(614, 230)"></g><g id="g-root-tx__1hdul3y17w3bi9-fill" data-item-order="1000000000" transform="translate(650, 233)"><g id="tx__1hdul3y17w3bi9-fill" stroke="none" fill="#ffffff"><g><text style="font: 20px Roboto, sans-serif; white-space: pre;" font-size="20px" font-family="Roboto, sans-serif"><tspan x="12" y="34" dominant-baseline="ideographic">流量包模块</tspan></text></g></g></g><g id="g-root-ic_serv_qwju5a17wodfp-fill" data-item-order="1000000000" transform="translate(332, 134)"></g><g id="g-root-ic_dayt_qofkv217waayu-fill" data-item-order="1000000000" transform="translate(464, 344)"></g><g id="g-root-tx__v3mlwe17wadcd-fill" data-item-order="1000000000" transform="translate(446, 398)"><g id="tx__v3mlwe17wadcd-fill" stroke="none" fill="#ffffff"><g><text style="font: 20px Roboto, sans-serif; white-space: pre;" font-size="20px" font-family="Roboto, sans-serif"><tspan x="12" y="34" dominant-baseline="ideographic">系统亮点</tspan></text></g></g></g><g id="g-root-tx__vcdc9q17wocng-fill" data-item-order="1000000000" transform="translate(242, 137)"><g id="tx__vcdc9q17wocng-fill" stroke="none" fill="#ffffff"><g><text style="font: 20px Roboto, sans-serif; white-space: pre;" font-size="20px" font-family="Roboto, sans-serif"><tspan x="12" y="34" dominant-baseline="ideographic">短链服务</tspan></text></g></g></g><g id="g-root-ic_auth_18kpe1q17whbf2-fill" data-item-order="1000000000" transform="translate(428, 680)"></g><g id="g-root-tx__1hfpx7i17whds5-fill" data-item-order="1000000000" transform="translate(464, 683)"><g id="tx__1hfpx7i17whds5-fill" stroke="none" fill="#ffffff"><g><text style="font: 20px Roboto, sans-serif; white-space: pre;" font-size="20px" font-family="Roboto, sans-serif"><tspan x="12" y="34" dominant-baseline="ideographic">账号模块</tspan></text></g></g></g><g id="g-root-ro_qofkv217waayv-stroke" data-item-order="-16632" transform="translate(422, 320)"><g id="ro_qofkv217waayv-stroke" fill="none" stroke-linecap="round" stroke-linejoin="round" stroke-miterlimit="4" stroke="#ffffff" stroke-width="2"><g><path d="M 34 10L 118 10C 118 10 142 10 142 34L 142 112C 142 112 142 136 118 136L 34 136C 34 136 10 136 10 112L 10 34C 10 34 10 10 34 10"></path></g></g></g><g id="g-root-ro_18i7kv217w3caz-stroke" data-item-order="-9072" transform="translate(602, 218)"><g id="ro_18i7kv217w3caz-stroke" fill="none" stroke-linecap="round" stroke-linejoin="round" stroke-miterlimit="4" stroke="#ffffff" stroke-width="2"><g><path d="M 22 10L 166 10C 166 10 178 10 178 22L 178 52C 178 52 178 64 166 64L 22 64C 22 64 10 64 10 52L 10 22C 10 22 10 10 22 10"></path></g></g></g><g id="g-root-ro_144vvxa17whc7b-stroke" data-item-order="-7776" transform="translate(416, 668)"><g id="ro_144vvxa17whc7b-stroke" fill="none" stroke-linecap="round" stroke-linejoin="round" stroke-miterlimit="4" stroke="#ffffff" stroke-width="2"><g><path d="M 22 10L 142 10C 142 10 154 10 154 22L 154 52C 154 52 154 64 142 64L 22 64C 22 64 10 64 10 52L 10 22C 10 22 10 10 22 10"></path></g></g></g><g id="g-root-ro_qwju5a17wodfq-stroke" data-item-order="-7776" transform="translate(230, 122)"><g id="ro_qwju5a17wodfq-stroke" fill="none" stroke-linecap="round" stroke-linejoin="round" stroke-miterlimit="4" stroke="#ffffff" stroke-width="2"><g><path d="M 22 10L 142 10C 142 10 154 10 154 22L 154 52C 154 52 154 64 142 64L 22 64C 22 64 10 64 10 52L 10 22C 10 22 10 10 22 10"></path></g></g></g><g id="g-root-tx__18hl3ry17wab5v-stroke" data-item-order="0" transform="translate(62, 188)"></g><g id="g-root-cu_qofr6m17w3apw-stroke" data-item-order="0" transform="translate(332, 176)"><g id="cu_qofr6m17w3apw-stroke" fill="none" stroke-linecap="round" stroke-linejoin="round" stroke-miterlimit="4" stroke="#484848" stroke-width="2" stroke-dasharray="5.0, 7.0"><g><path d="M 28 10L 28 22L 28 34L 19 34L 10 34"></path></g></g></g><g id="g-root-cu_qofr6m17w3apz-stroke" data-item-order="0" transform="translate(332, 176)"><g id="cu_qofr6m17w3apz-stroke" fill="none" stroke-linecap="round" stroke-linejoin="round" stroke-miterlimit="4" stroke="#484848" stroke-width="2" stroke-dasharray="5.0, 7.0"><g><path d="M 28 10L 28 40L 28 70L 19 70L 10 70"></path></g></g></g><g id="g-root-cu_m8m92617w3bi9-stroke" data-item-order="0" transform="translate(332, 176)"><g id="cu_m8m92617w3bi9-stroke" fill="none" stroke-linecap="round" stroke-linejoin="round" stroke-miterlimit="4" stroke="#484848" stroke-width="2" stroke-dasharray="5.0, 7.0"><g><path d="M 28 10L 28 58L 28 106L 19 106L 10 106"></path></g></g></g><g id="g-root-cu_m8m92617w3bib-stroke" data-item-order="0" transform="translate(332, 176)"><g id="cu_m8m92617w3bib-stroke" fill="none" stroke-linecap="round" stroke-linejoin="round" stroke-miterlimit="4" stroke="#484848" stroke-width="2" stroke-dasharray="5.0, 7.0"><g><path d="M 28 10L 28 82L 28 154L 19 154L 10 154"></path></g></g></g><g id="g-root-cu_m8m92617w3bid-stroke" data-item-order="0" transform="translate(332, 176)"><g id="cu_m8m92617w3bid-stroke" fill="none" stroke-linecap="round" stroke-linejoin="round" stroke-miterlimit="4" stroke="#484848" stroke-width="2" stroke-dasharray="5.0, 7.0"><g><path d="M 28 10L 28 106L 28 202L 19 202L 10 202"></path></g></g></g><g id="g-root-cu_dcz8ta17w3cb3-stroke" data-item-order="0" transform="translate(332, 176)"><g id="cu_dcz8ta17w3cb3-stroke" fill="none" stroke-linecap="round" stroke-linejoin="round" stroke-miterlimit="4" stroke="#484848" stroke-width="2" stroke-dasharray="5.0, 7.0"><g><path d="M 28 10L 28 130L 28 250L 19 250L 10 250"></path></g></g></g><g id="g-root-cu_hssqxq17w3cap-stroke" data-item-order="0" transform="translate(332, 176)"><g id="cu_hssqxq17w3cap-stroke" fill="none" stroke-linecap="round" stroke-linejoin="round" stroke-miterlimit="4" stroke="#484848" stroke-width="2" stroke-dasharray="5.0, 7.0"><g><path d="M 28 10L 28 160L 28 310L 19 310L 10 310"></path></g></g></g><g id="g-root-cu_hssqxq17w3car-stroke" data-item-order="0" transform="translate(332, 176)"><g id="cu_hssqxq17w3car-stroke" fill="none" stroke-linecap="round" stroke-linejoin="round" stroke-miterlimit="4" stroke="#484848" stroke-width="2" stroke-dasharray="5.0, 7.0"><g><path d="M 28 10L 28 190L 28 370L 19 370L 10 370"></path></g></g></g><g id="g-root-cu_8xs7ry17w39xp-stroke" data-item-order="0" transform="translate(332, 176)"><g id="cu_8xs7ry17w39xp-stroke" fill="none" stroke-linecap="round" stroke-linejoin="round" stroke-miterlimit="4" stroke="#484848" stroke-width="2" stroke-dasharray="5.0, 7.0"><g><path d="M 28 10L 28 62.5L 28 418C 28.000027 424.62743 22.627444 430.000014 16.000027 430.000014L 15.9 430L 10 430"></path></g></g></g><g id="g-root-tx__zly3j217wabyk-stroke" data-item-order="0" transform="translate(182, 224)"></g><g id="g-root-cu_18f3ala17w3aq5-stroke" data-item-order="0" transform="translate(374, 149)"><g id="cu_18f3ala17w3aq5-stroke" fill="none" stroke-linecap="round" stroke-linejoin="round" stroke-miterlimit="4" stroke="#484848" stroke-width="2" stroke-dasharray="5.0, 7.0"><g><path d="M 58 223L 55 223L 54.9 223C 43.35725 223.000002 34.000001 213.642753 34.000001 202.100002L 34 202L 34 30.9C 33.999998 19.357248 24.64275 10 13.1 10L 13 10L 10 10"></path></g></g></g><g id="g-root-tx__v4vn8e17waaki-stroke" data-item-order="0" transform="translate(464, 734)"></g><g id="g-root-cu_1haqau617w39xe-stroke" data-item-order="0" transform="translate(554, 245)"><g id="cu_1haqau617w39xe-stroke" fill="none" stroke-linecap="round" stroke-linejoin="round" stroke-miterlimit="4" stroke="#484848" stroke-width="2" stroke-dasharray="5.0, 7.0"><g><path d="M 10 127L 13 127L 13.1 127C 24.642747 127.000004 33.999996 117.642756 33.999997 106.100004L 34 106L 34 30.9C 33.999999 19.357249 43.357248 10.000001 54.899999 10.000002L 55 10L 58 10"></path></g></g></g><g id="g-root-tx__v64lem17wacqt-stroke" data-item-order="0" transform="translate(38, 260)"></g><g id="g-root-cu_zjgace17w3cax-stroke" data-item-order="0" transform="translate(626, 272)"><g id="cu_zjgace17w3cax-stroke" fill="none" stroke-linecap="round" stroke-linejoin="round" stroke-miterlimit="4" stroke="#484848" stroke-width="2" stroke-dasharray="5.0, 7.0"><g><path d="M 10 10L 10 28L 10 46L 19 46L 28 46"></path></g></g></g><g id="g-root-cu_zjgace17w3cb0-stroke" data-item-order="0" transform="translate(626, 272)"><g id="cu_zjgace17w3cb0-stroke" fill="none" stroke-linecap="round" stroke-linejoin="round" stroke-miterlimit="4" stroke="#484848" stroke-width="2" stroke-dasharray="5.0, 7.0"><g><path d="M 10 10L 10 58L 10 106L 19 106L 28 106"></path></g></g></g><g id="g-root-cu_v499b217w39xi-stroke" data-item-order="0" transform="translate(626, 272)"><g id="cu_v499b217w39xi-stroke" fill="none" stroke-linecap="round" stroke-linejoin="round" stroke-miterlimit="4" stroke="#484848" stroke-width="2" stroke-dasharray="5.0, 7.0"><g><path d="M 10 10L 10 82L 10 154L 19 154L 28 154"></path></g></g></g><g id="g-root-tx_oss_4il3ku17waakl-stroke" data-item-order="0" transform="translate(464, 842)"></g><g id="g-root-cu_qofr6m17w3apu-stroke" data-item-order="0" transform="translate(626, 272)"><g id="cu_qofr6m17w3apu-stroke" fill="none" stroke-linecap="round" stroke-linejoin="round" stroke-miterlimit="4" stroke="#484848" stroke-width="2" stroke-dasharray="5.0, 7.0"><g><path d="M 10 10L 10 40L 10 238C 10.000001 244.627429 15.372584 250.000012 22.000002 250.000012L 22.1 250L 28 250"></path></g></g></g><g id="g-root-tx_cb_mahl5q17wadji-stroke" data-item-order="0" transform="translate(14, 296)"></g><g id="g-root-tx__4il3ku17waakm-stroke" data-item-order="0" transform="translate(650, 284)"></g><g id="g-root-tx__htf4v217wac5f-stroke" data-item-order="0" transform="translate(464, 770)"></g><g id="g-root-tx__hvak4e17wab5z-stroke" data-item-order="0" transform="translate(122, 356)"></g><g id="g-root-tx__1uo25b217wab67-stroke" data-item-order="0" transform="translate(650, 344)"></g><g id="g-root-tx_cb_dfh1zy17waby8-stroke" data-item-order="0" transform="translate(14, 392)"></g><g id="g-root-tx__8xs4m617wacy4-stroke" data-item-order="0" transform="translate(464, 806)"></g><g id="g-root-tx__1q88n6m17wabyg-stroke" data-item-order="0" transform="translate(650, 404)"></g><g id="g-root-tx_curdp1_4ju1r217wacqx-stroke" data-item-order="0" transform="translate(50, 452)"></g><g id="g-root-cu_1cuwspq17w39xr-stroke" data-item-order="0" transform="translate(488, 446)"><g id="cu_1cuwspq17w39xr-stroke" fill="none" stroke-linecap="round" stroke-linejoin="round" stroke-miterlimit="4" stroke="#484848" stroke-width="2" stroke-dasharray="5.0, 7.0"><g><path d="M 10 10L 10 121L 10 232"></path></g></g></g><g id="g-root-tx__1lsf52617wacqp-stroke" data-item-order="0" transform="translate(650, 440)"></g><g id="g-root-tx_partitio_4ju1r217wacqy-stroke" data-item-order="0" transform="translate(26, 512)"></g><g id="g-root-tx__1cws4ta17wadje-stroke" data-item-order="0" transform="translate(650, 500)"></g><g id="g-root-tx__40jmm17wadj7-stroke" data-item-order="0" transform="translate(14, 572)"></g><g id="g-root-tx__8xs7ry17w39xr-stroke" data-item-order="0" transform="translate(368, 38)"></g><g id="g-root-cu_v499b217w39xk-stroke" data-item-order="0" transform="translate(626, 272)"><g id="cu_v499b217w39xk-stroke" fill="none" stroke-linecap="round" stroke-linejoin="round" stroke-miterlimit="4" stroke="#484848" stroke-width="2" stroke-dasharray="5.0, 7.0"><g><path d="M 10 10L 10 106L 10 202L 19 202L 28 202"></path></g></g></g><g id="g-root-cu_1cuwspq17w3aps-stroke" data-item-order="0" transform="translate(440, 722)"><g id="cu_1cuwspq17w3aps-stroke" fill="none" stroke-linecap="round" stroke-linejoin="round" stroke-miterlimit="4" stroke="#484848" stroke-width="2" stroke-dasharray="5.0, 7.0"><g><path d="M 10 10L 10 22L 10 34L 19 34L 28 34"></path></g></g></g><g id="g-root-cu_1cuwspq17w3apv-stroke" data-item-order="0" transform="translate(440, 722)"><g id="cu_1cuwspq17w3apv-stroke" fill="none" stroke-linecap="round" stroke-linejoin="round" stroke-miterlimit="4" stroke="#484848" stroke-width="2" stroke-dasharray="5.0, 7.0"><g><path d="M 10 10L 10 40L 10 70L 19 70L 28 70"></path></g></g></g><g id="g-root-cu_13z9sgu17w3bil-stroke" data-item-order="0" transform="translate(440, 722)"><g id="cu_13z9sgu17w3bil-stroke" fill="none" stroke-linecap="round" stroke-linejoin="round" stroke-miterlimit="4" stroke="#484848" stroke-width="2" stroke-dasharray="5.0, 7.0"><g><path d="M 10 10L 10 58L 10 106L 19 106L 28 106"></path></g></g></g><g id="g-root-cu_13z9sgu17w3bin-stroke" data-item-order="0" transform="translate(440, 722)"><g id="cu_13z9sgu17w3bin-stroke" fill="none" stroke-linecap="round" stroke-linejoin="round" stroke-miterlimit="4" stroke="#484848" stroke-width="2" stroke-dasharray="5.0, 7.0"><g><path d="M 10 10L 10 26.5L 10 130C 10.000005 136.627425 15.372589 142.000008 22.000006 142.000007L 22.1 142L 28 142"></path></g></g></g><g id="g-root-ic_ftp_18i7kv217w3cay-stroke" data-item-order="1000000000" transform="translate(614, 230)"><g id="ic_ftp_18i7kv217w3cay-stroke" fill="none" stroke-linecap="round" stroke-linejoin="round" stroke-miterlimit="4" stroke="#ffffff" stroke-width="2"><g><path d="M 24.375 16.25L 24.375 11.25M 27.5 14.375L 24.375 11.25L 21.25 14.375M 13.125 18.75L 36.875 18.75L 36.875 31.25L 13.125 31.25ZM 16.875 25.077499L 19.375 25.077499M 16.875 28.75L 16.875 22.5C 16.875 21.809643 17.434645 21.25 18.125 21.25L 20.625 21.25M 16.875 25L 19.375 25M 23.125 21.25L 26.875 21.25M 25 21.25L 25 28.75M 33.125 23.125C 33.125 24.160534 32.285534 25 31.25 25L 29.375 25L 29.375 21.25L 31.25 21.25C 32.285534 21.25 33.125 22.089466 33.125 23.125ZM 29.375 28.75L 29.375 25M 24.375 33.75L 24.375 38.75M 27.5 35.625L 24.375 38.75L 21.25 35.625"></path></g></g></g><g id="g-root-tx__1hdul3y17w3bi9-stroke" data-item-order="1000000000" transform="translate(650, 233)"></g><g id="g-root-ic_serv_qwju5a17wodfp-stroke" data-item-order="1000000000" transform="translate(332, 134)"><g id="ic_serv_qwju5a17wodfp-stroke" fill="none" stroke-linecap="round" stroke-linejoin="round" stroke-miterlimit="4" stroke="#ffffff" stroke-width="2"><g><path d="M 10.625 16.940001L 23.125 21.0825L 23.125 39.314999L 10.7075 35ZM 26.875 39.375L 39.375 35L 39.375 17.05625L 26.875 21.022499ZM 24.987499 18.168751L 38.16375 14.54875L 24.987499 10.80125L 11.99 14.35375L 24.987499 18.168751Z"></path></g></g></g><g id="g-root-ic_dayt_qofkv217waayu-stroke" data-item-order="1000000000" transform="translate(464, 344)"><g id="ic_dayt_qofkv217waayu-stroke" fill="none" stroke-linecap="round" stroke-linejoin="round" stroke-miterlimit="4" stroke="#ffffff" stroke-width="2"><g><path d="M 13 45L 17 45L 17 57L 13 57ZM 21 35L 25 35L 25 57L 21 57ZM 29 41L 33 41L 33 57L 29 57ZM 37 27L 41 27L 41 57L 37 57ZM 45 35L 49 35L 49 57L 45 57ZM 53 19L 57 19L 57 57L 53 57ZM 13 11L 57 11L 57 15L 13 15Z"></path></g></g></g><g id="g-root-tx__v3mlwe17wadcd-stroke" data-item-order="1000000000" transform="translate(446, 398)"></g><g id="g-root-tx__vcdc9q17wocng-stroke" data-item-order="1000000000" transform="translate(242, 137)"></g><g id="g-root-ic_auth_18kpe1q17whbf2-stroke" data-item-order="1000000000" transform="translate(428, 680)"><g id="ic_auth_18kpe1q17whbf2-stroke" fill="none" stroke-linecap="round" stroke-linejoin="round" stroke-miterlimit="4" stroke="#ffffff" stroke-width="2"><g><path d="M 10.625 25C 10.625 32.939095 17.060907 39.375 25 39.375C 32.939095 39.375 39.375 32.939095 39.375 25C 39.375 17.060907 32.939095 10.625 25 10.625C 17.060907 10.625 10.625 17.060907 10.625 25M 10 10M 28.487499 24.862501L 24.737499 21.112501C 23.537029 19.815752 21.723722 19.27899 20.010824 19.713343C 18.297926 20.147696 16.959503 21.483667 16.522011 23.195766C 16.084518 24.907866 16.617954 26.722155 17.9125 27.924999L 20.650002 30.6625M 10 10M 22.5 26.125L 25.225 28.85C 27.125423 30.615807 30.081932 30.562901 31.917963 28.730232C 33.753994 26.897564 33.812317 23.941156 32.049999 22.0375L 29.325001 19.299999"></path></g></g></g><g id="g-root-tx__1hfpx7i17whds5-stroke" data-item-order="1000000000" transform="translate(464, 683)"></g></g></g><path id="wv4v4a614amo00" d="M65.283 12.757a.35.35 0 0 0 .584.157l5.203-5.141-6.183 3.523.396 1.461zm-2.216-11.7a.35.35 0 0 0-.522.305v3.111l3.276-1.868-2.754-1.548zm3.728 2.105l-4.25 2.421v2.445l6.391-3.644-2.141-1.222zm4.708 3.303a.35.35 0 0 0 0-.609l-1.592-.9-7.365 4.199v1.782a.35.35 0 0 0 .523.305l8.435-4.777z M44.542 2.513c0-.433.355-.783.792-.783s.792.35.792.783-.355.783-.792.783-.792-.35-.792-.783zm59.171 0c0-.433.355-.783.792-.783s.792.35.792.783-.355.783-.792.783-.792-.35-.792-.783zm-85.951 7.636h-1.27v-.487c-.276.201-.864.609-1.881.609-1.202 0-2.274-.794-2.137-2.078.118-1.106 1.153-1.584 1.848-1.727l2.17-.345c0-.539-.29-.956-1.064-1.006s-1.21.305-1.571 1.017l-1.124-.605c1.218-2.631 5.029-1.764 5.029.414v4.207zm-1.27-2.86c.006.396-.062 1.112-.819 1.59-.587.37-1.841.299-1.903-.395-.049-.555.461-.791.906-.898l1.816-.297zm72.662 2.86h-1.27v-.487c-.276.201-.864.609-1.881.609-1.202 0-2.274-.794-2.137-2.078.118-1.106 1.153-1.584 1.848-1.727l2.17-.345c0-.539-.29-.956-1.064-1.006s-1.21.305-1.571 1.017l-1.124-.605c1.218-2.631 5.029-1.764 5.029.414v4.207zm-1.27-2.86c.006.396-.062 1.112-.82 1.59-.587.37-1.841.299-1.903-.395-.049-.555.461-.791.906-.898l1.816-.297zM99.096 10.149H97.85v-8.45h1.246v4.895l2.68-2.559h1.738l-2.633 2.535 2.715 3.578h-1.556l-2.077-2.707-.867.844v1.863zm6.053-6.114h-1.255v6.113h1.255V4.035zm-59.2 0h-1.255v6.113h1.255V4.035zm5.584 6.113V1.697h1.255v2.695c.361-.346 1-.485 1.47-.485 1.452 0 2.477 1.082 2.457 2.448v3.792h-1.27v-3.68c0-.408-.214-1.339-1.315-1.339-.968 0-1.342.756-1.342 1.339v3.681h-1.255zm-4.76-4.894V4.039h.621a.45.45 0 0 0 .45-.45v-.855h1.251v1.305h1.309v1.215h-1.309v3.109c0 .293.105.664.648.664.365 0 .531-.035.736-.07v1.137s-.361.113-.857.113c-1.398 0-1.777-1.051-1.777-1.788V5.254h-1.071zM36.528 4.039h-1.394l2.191 6.106h1.125l1.234-3.918 1.238 3.918h1.129l2.188-6.106h-1.383l-1.359 3.93-1.256-3.93h-1.124l-1.242 3.957-1.348-3.957zM26.212 7.141c-.02 1.566 1.187 3.129 3.223 3.129 1.566 0 2.383-.918 2.734-1.719L31.172 8c-.315.399-.801 1.094-1.738 1.094-1.145 0-1.825-.781-1.891-1.52h4.625c.074-.284.148-.995-.03-1.559-.336-1.064-1.221-2.102-2.839-2.102s-3.088 1.152-3.088 3.227zm1.363-.75h3.348c-.055-.43-.566-1.301-1.623-1.301a1.79 1.79 0 0 0-1.725 1.301zm-8.758.75c.038 1.758 1.277 3.133 3.145 3.133 1.074 0 1.723-.477 1.961-.672v.547h1.242V1.703h-1.258v2.888c-.414-.36-1.062-.68-1.93-.68-1.91 0-3.198 1.473-3.16 3.23zm1.309-.08c0 1.119.723 1.978 1.836 1.978a1.88 1.88 0 0 0 1.94-1.904c0-1.371-1.011-1.99-1.972-1.99s-1.805.798-1.805 1.916zm76.683-.028C96.771 5.275 95.532 3.9 93.664 3.9c-1.074 0-1.723.477-1.961.672v-.547h-1.242v8.22h1.258V9.583c.414.36 1.063.68 1.93.68 1.91 0 3.198-1.473 3.16-3.23zm-1.309.08c0-1.119-.723-1.978-1.836-1.978a1.88 1.88 0 0 0-1.94 1.904c0 1.371 1.011 1.99 1.972 1.99S95.5 8.231 95.5 7.113zM106.441 10.173V4.036h1.254v.382c.361-.346 1-.485 1.47-.485 1.452 0 2.477 1.082 2.457 2.448v3.792h-1.27V6.492c0-.408-.214-1.339-1.315-1.339-.969 0-1.342.756-1.342 1.339v3.681h-1.254zm-30.383-.021V1.824h1.084l4.215 5.777V1.824h1.32v8.328h-1.094l-4.207-5.796v5.796h-1.319zM5.24 10.149H4V2.377h1.014l2.664 3.597 2.654-3.592h1.03v7.766h-1.256V4.762L7.678 8.068 5.24 4.742v5.407z" transform="translate(860, 900)" fill="#80808088" stroke="none"></path></svg>